<svg xmlns="http://www.w3.org/2000/svg" viewBox="0 0 512 512" width="512" height="512">
  <defs>
    <linearGradient id="bg" x1="0" y1="0" x2="1" y2="1">
      <stop offset="0" stop-color="#14181B"/>
      <stop offset="1" stop-color="#0B0E10"/>
    </linearGradient>
    <linearGradient id="flame" x1="0.5" y1="0" x2="0.5" y2="1">
      <stop offset="0" stop-color="#FCD34D"/>
      <stop offset="0.6" stop-color="#F59E0B"/>
      <stop offset="1" stop-color="#EA580C"/>
    </linearGradient>
  </defs>
  <rect width="512" height="512" rx="112" fill="url(#bg)"/>
  <rect x="8" y="8" width="496" height="496" rx="104" fill="none" stroke="#F59E0B" stroke-opacity="0.25" stroke-width="4"/>
  <path fill="url(#flame)" d="M256 96c40 78 104 116 104 204a104 104 0 1 1-208 0c0-31 10-57 27-79-6 52 26 79 40 79 21 0 26-26 13-52 21 16 39 42 39 79a64 64 0 1 1-128 0c0-92 78-130 113-231z"/>
</svg>
